<svg version="1.1" id="1309401110" xmlns="http://www.w3.org/2000/svg" xmlns:xlink="http://www.w3.org/1999/xlink" x="0px" y="0px" viewBox="0 0 512 512" style="enable-background:new 0 0 512 512;" xml:space="preserve" data-icon-custom="true" data-icon-name="carretilla.svg"> <g> <g> <path d="M511.927,137.837c-0.573-4.102-4.353-6.963-8.464-6.394l-40.503,5.644c-8.415,1.173-15.735,6.746-19.102,14.547&#10;&#9;&#9;&#9;l-53.66,124.304c-3.052,7.07-9.686,12.122-17.312,13.184l-12.835,1.788l33.229-86.211l0.327-0.001&#10;&#9;&#9;&#9;c7.931-0.014,14.402-6.478,14.427-14.409l0.032-10.786c0.012-3.873-1.489-7.516-4.227-10.257&#10;&#9;&#9;&#9;c-2.731-2.734-6.361-4.239-10.24-4.239c-0.009,0-0.019,0-0.027,0l-19.955,0.077c-6.929-16.694-20.826-26.708-38.229-27.342&#10;&#9;&#9;&#9;c-6.167-21.605-19.232-40.12-38.059-53.826c-18.01-13.112-40.811-21.329-64.207-23.137c-39.81-3.073-73.111,12.275-86.675,39.431&#10;&#9;&#9;&#9;c-27.576-0.618-51.196,14.351-62.199,39.471c-23.373,2.765-36.558,14.917-41.86,26.689l-27.928,0.108&#10;&#9;&#9;&#9;c-7.931,0.015-14.402,6.478-14.427,14.409L0,191.673c-0.012,3.873,1.489,7.516,4.227,10.257c2.731,2.734,6.361,4.239,10.241,4.239&#10;&#9;&#9;&#9;c0.009,0,0.018,0,0.026,0l14.67-0.057l108.697,115.76c-11.015,1.605-21.094,7.08-28.463,15.316&#10;&#9;&#9;&#9;c-12.208-6.463-26.141-8.561-39.892-5.884c-32.851,6.395-54.375,38.328-47.98,71.182c3.099,15.916,12.208,29.673,25.651,38.736&#10;&#9;&#9;&#9;c10.144,6.838,21.836,10.387,33.803,10.387c3.893,0,7.816-0.376,11.724-1.137c32.851-6.395,54.375-38.327,47.98-71.181&#10;&#9;&#9;&#9;c-2.544-13.067-9.146-24.673-18.865-33.427c4.94-4.938,11.399-8.208,18.404-9.184l83.65-11.654l52.535,84.097&#10;&#9;&#9;&#9;c6.43,10.292,17.702,16.417,29.622,16.417c1.595,0,3.201-0.109,4.809-0.333c0.001,0,0.001,0,0.001,0&#10;&#9;&#9;&#9;c19.068-2.657,32.421-20.333,29.766-39.402l-10.529-75.574l44.88-6.252c12.782-1.78,23.899-10.247,29.015-22.096l53.66-124.304&#10;&#9;&#9;&#9;c1.305-3.021,4.14-5.182,7.4-5.636l40.504-5.643C509.636,145.729,512.499,141.94,511.927,137.837z M125.959,382.157&#10;&#9;&#9;&#9;c4.815,24.736-11.39,48.778-36.123,53.594c-11.978,2.332-24.152-0.142-34.273-6.965c-10.122-6.824-16.98-17.182-19.312-29.164&#10;&#9;&#9;&#9;c-4.815-24.737,11.39-48.779,36.123-53.595c9.641-1.874,19.404-0.634,28.123,3.474l-9.42,13.831&#10;&#9;&#9;&#9;c-4.432-1.609-9.216-2.126-14.013-1.459c-7.751,1.08-14.617,5.112-19.334,11.356c-4.717,6.244-6.72,13.951-5.641,21.701&#10;&#9;&#9;&#9;c1.08,7.751,5.112,14.616,11.356,19.334c5.139,3.882,11.269,5.926,17.599,5.926c1.361,0,2.731-0.095,4.104-0.285&#10;&#9;&#9;&#9;c7.75-1.08,14.616-5.113,19.333-11.357c4.717-6.244,6.72-13.951,5.641-21.701c-0.782-5.613-3.121-10.758-6.72-14.963l9.446-13.87&#10;&#9;&#9;&#9;C119.565,364.476,124.141,372.818,125.959,382.157z M69.698,382.272c2.302-3.047,5.651-5.015,9.435-5.541&#10;&#9;&#9;&#9;c0.67-0.094,1.338-0.14,2.002-0.14c3.089,0,6.08,0.997,8.587,2.892c3.047,2.302,5.016,5.652,5.542,9.435&#10;&#9;&#9;&#9;c0.527,3.781-0.45,7.542-2.752,10.589s-5.652,5.016-9.435,5.542c-3.782,0.528-7.543-0.45-10.59-2.752s-5.015-5.652-5.541-9.434&#10;&#9;&#9;&#9;v-0.001C66.419,389.08,67.396,385.319,69.698,382.272z M89.946,154.228c2.992-0.178,5.591-2.119,6.608-4.938&#10;&#9;&#9;&#9;c5.861-16.225,21.828-34.107,48.11-34.107c1.882,0,3.82,0.093,5.809,0.283c3.324,0.322,6.486-1.617,7.705-4.745&#10;&#9;&#9;&#9;c9.341-23.996,38.299-37.725,73.788-34.986c20.662,1.597,40.74,8.809,56.534,20.308c17.556,12.781,29.232,30.411,33.767,50.983&#10;&#9;&#9;&#9;c0.817,3.707,4.267,6.227,8.055,5.849c1.1-0.107,2.183-0.162,3.223-0.164c0.022,0,0.043,0,0.064,0&#10;&#9;&#9;&#9;c9.844,0,17.913,4.426,23.157,12.439L60.08,166.301C66.927,158.843,78.876,154.887,89.946,154.228z M308.77,410.351&#10;&#9;&#9;&#9;c-7.778,1.081-15.482-2.518-19.641-9.174l-48.987-78.416l75.076-10.459l10.529,75.574&#10;&#9;&#9;&#9;C327.263,398.753,319.646,408.835,308.77,410.351z M336.007,294.26l-15.422,2.149c-0.003,0-0.006,0-0.009,0.001L226.62,309.5&#10;&#9;&#9;&#9;c-0.001,0-0.001,0-0.001,0l-64.574,8.996c-3.614,0.541-7.931-1.227-11.001-4.496L49.666,206.033l26.032-0.101&#10;&#9;&#9;&#9;c4.142-0.017,7.486-3.387,7.471-7.529c-0.016-4.132-3.371-7.471-7.499-7.471c-0.01,0-0.021,0-0.03,0l-60.638,0.235l0.028-9.691&#10;&#9;&#9;&#9;l378.033-1.468l-0.028,9.691l-263.652,1.023c-4.142,0.017-7.486,3.387-7.471,7.529c0.016,4.132,3.371,7.471,7.499,7.471&#10;&#9;&#9;&#9;c0.01,0,0.021,0,0.03,0l247.738-0.962l-31.483,81.681C344.091,290.61,340.35,293.609,336.007,294.26z"/> 
</g> 
</g> 
 <g/> 
 <g/> 
 <g/> 
 <g/> 
 <g/> 
 <g/> 
 <g/> 
 <g/> 
 <g/> 
 <g/> 
 <g/> 
 <g/> 
 <g/> 
 <g/> 
 <g/> 
</svg>