<svg version="1.1" id="1191094269" xmlns="http://www.w3.org/2000/svg" xmlns:xlink="http://www.w3.org/1999/xlink" x="0px" y="0px" viewBox="0 0 512 512" style="enable-background:new 0 0 512 512;" xml:space="preserve" data-icon-custom="true" data-icon-name="cortacesped.svg"> <g> <g> <path d="M497.48,82.822l-19.638-17.383c-3.102-2.745-7.844-2.459-10.591,0.646c-2.746,3.103-2.457,7.844,0.646,10.591&#10;&#9;&#9;&#9;l19.637,17.383c10.006,8.857,12.392,23.669,5.715,35.151l-72.322,121.31h-46.942v-24.333c0-11.195-9.108-20.303-20.303-20.303&#10;&#9;&#9;&#9;h-36.977l-1.012-14.69c-0.788-11.416-10.369-20.36-21.812-20.36H235.01c-11.444,0-21.026,8.944-21.812,20.361l-1.013,14.689&#10;&#9;&#9;&#9;h-35.687c-36.005,0-65.297,29.291-65.297,65.296v40.805c0,9.172,7.463,16.634,16.635,16.634h9.253v17.015h-29.186&#10;&#9;&#9;&#9;c-11.323-12.713-27.801-20.741-46.125-20.741C27.713,324.892,0,352.605,0,386.669c0,34.064,27.713,61.776,61.776,61.776&#10;&#9;&#9;&#9;c18.324,0,34.801-8.027,46.124-20.74h261.431c11.323,12.713,27.8,20.74,46.124,20.74c34.065,0,61.777-27.713,61.777-61.776&#10;&#9;&#9;&#9;c0-34.065-27.713-61.777-61.777-61.777c-8.662,0-16.908,1.799-24.398,5.032L506.18,136.823&#10;&#9;&#9;&#9;C516.48,119.113,512.822,96.403,497.48,82.822z M228.167,192.226c0.246-3.581,3.252-6.387,6.842-6.387h58.871&#10;&#9;&#9;&#9;c3.59,0,6.595,2.806,6.842,6.387l0.942,13.657h-74.439L228.167,192.226z M127.834,313.614v-0.001&#10;&#9;&#9;&#9;c-0.899,0-1.629-0.731-1.629-1.629v-40.805c0-27.4,22.031-49.738,49.308-50.266l178.169-0.025c2.921,0,5.298,2.377,5.298,5.298&#10;&#9;&#9;&#9;v57.635c0,2.921-2.377,5.298-5.298,5.298H196.698c-9.172,0-16.635,7.463-16.635,16.635v6.231c0,0.898-0.731,1.629-1.629,1.629&#10;&#9;&#9;&#9;H144.59H127.834z M320.434,304.124v41.509H152.093v-17.015h26.342c9.172,0,16.634-7.462,16.634-16.634v-6.231&#10;&#9;&#9;&#9;c0-0.899,0.731-1.629,1.629-1.629H320.434z M108.492,388.914c-0.009,0.185-0.023,0.368-0.034,0.552&#10;&#9;&#9;&#9;c-0.035,0.588-0.077,1.174-0.134,1.757c-0.015,0.157-0.032,0.314-0.049,0.471c-0.072,0.67-0.155,1.337-0.255,1.999&#10;&#9;&#9;&#9;c-0.007,0.046-0.013,0.093-0.02,0.139c-0.057,0.368-0.131,0.729-0.196,1.094c-0.162,0.912-0.351,1.819-0.568,2.719&#10;&#9;&#9;&#9;c-0.003,0.013-0.006,0.026-0.009,0.038c-0.659,2.721-1.569,5.378-2.705,7.937c-0.053,0.119-0.107,0.237-0.16,0.355&#10;&#9;&#9;&#9;c-0.319,0.704-0.658,1.398-1.012,2.085c-0.077,0.15-0.152,0.302-0.231,0.451c-0.394,0.745-0.807,1.479-1.241,2.202&#10;&#9;&#9;&#9;c-0.031,0.052-0.059,0.105-0.09,0.157c-0.436,0.721-0.899,1.427-1.374,2.125c-0.206,0.301-0.421,0.594-0.633,0.889&#10;&#9;&#9;&#9;c-0.282,0.393-0.568,0.783-0.862,1.167c-8.555,11.168-22.018,18.389-37.141,18.389c-25.789,0-46.771-20.982-46.771-46.771&#10;&#9;&#9;&#9;c0-25.79,20.982-46.772,46.771-46.772c15.232,0,28.782,7.322,37.328,18.627c0.078,0.103,0.157,0.206,0.234,0.31&#10;&#9;&#9;&#9;c0.403,0.543,0.797,1.094,1.177,1.654c0.015,0.023,0.031,0.045,0.047,0.067c3.77,5.582,6.368,12.017,7.438,18.95&#10;&#9;&#9;&#9;c0.007,0.047,0.014,0.095,0.021,0.142c0.1,0.661,0.183,1.327,0.254,1.997c0.017,0.157,0.034,0.314,0.049,0.471&#10;&#9;&#9;&#9;c0.056,0.582,0.099,1.168,0.134,1.756c0.011,0.184,0.026,0.368,0.034,0.552c0.035,0.744,0.057,1.492,0.057,2.245&#10;&#9;&#9;&#9;C108.548,387.422,108.527,388.17,108.492,388.914z M117.825,412.702c1.363-2.918,2.48-5.933,3.362-9.024h18.194&#10;&#9;&#9;&#9;c4.144,0,7.503-3.359,7.503-7.503s-3.359-7.503-7.503-7.503h-15.879c0.021-0.667,0.051-1.331,0.051-2.003&#10;&#9;&#9;&#9;c0-1.095-0.031-2.183-0.087-3.265c-0.03-0.587-0.087-1.169-0.134-1.753c-0.038-0.472-0.066-0.947-0.115-1.416&#10;&#9;&#9;&#9;c-0.08-0.777-0.187-1.547-0.295-2.317c-0.036-0.256-0.065-0.515-0.105-0.77c-0.136-0.884-0.298-1.76-0.472-2.634&#10;&#9;&#9;&#9;c-0.025-0.123-0.046-0.248-0.071-0.371c-0.194-0.948-0.414-1.888-0.653-2.823c-0.009-0.036-0.018-0.073-0.027-0.11&#10;&#9;&#9;&#9;c-0.934-3.633-2.18-7.171-3.77-10.573h241.582c-1.59,3.404-2.837,6.946-3.771,10.582c-0.007,0.028-0.014,0.057-0.021,0.085&#10;&#9;&#9;&#9;c-0.24,0.942-0.462,1.889-0.658,2.843c-0.024,0.118-0.044,0.237-0.068,0.355c-0.175,0.878-0.338,1.759-0.474,2.648&#10;&#9;&#9;&#9;c-0.039,0.252-0.067,0.507-0.103,0.76c-0.109,0.773-0.216,1.546-0.296,2.326c-0.049,0.468-0.076,0.942-0.114,1.414&#10;&#9;&#9;&#9;c-0.046,0.585-0.104,1.167-0.134,1.756c-0.057,1.081-0.087,2.169-0.087,3.265c-0.001,0.67,0.029,1.335,0.05,2.001H192.685&#10;&#9;&#9;&#9;c-4.144,0-7.503,3.359-7.503,7.503s3.359,7.503,7.503,7.503h163.36c0.882,3.09,1.999,6.106,3.362,9.024H117.825z M415.456,339.897&#10;&#9;&#9;&#9;c25.79,0,46.772,20.982,46.772,46.772c0,25.789-20.982,46.771-46.772,46.771c-15.128,0-28.595-7.226-37.15-18.401&#10;&#9;&#9;&#9;c-0.286-0.374-0.564-0.753-0.838-1.135c-0.219-0.305-0.441-0.608-0.653-0.918c-0.472-0.693-0.932-1.394-1.366-2.111&#10;&#9;&#9;&#9;c-0.039-0.065-0.074-0.132-0.113-0.197c-0.424-0.709-0.83-1.428-1.216-2.158c-0.084-0.159-0.164-0.32-0.246-0.48&#10;&#9;&#9;&#9;c-0.348-0.675-0.681-1.358-0.995-2.049c-0.059-0.129-0.117-0.257-0.175-0.387c-1.13-2.548-2.036-5.193-2.693-7.902&#10;&#9;&#9;&#9;c-0.008-0.033-0.015-0.067-0.023-0.1c-0.211-0.876-0.395-1.758-0.553-2.645c-0.068-0.377-0.144-0.751-0.202-1.132&#10;&#9;&#9;&#9;c-0.006-0.041-0.012-0.083-0.018-0.124c-0.101-0.666-0.184-1.337-0.256-2.011c-0.016-0.155-0.033-0.31-0.048-0.465&#10;&#9;&#9;&#9;c-0.057-0.583-0.099-1.17-0.134-1.76c-0.01-0.184-0.025-0.367-0.034-0.551c-0.035-0.744-0.057-1.492-0.057-2.245&#10;&#9;&#9;&#9;s0.021-1.501,0.057-2.245c0.009-0.184,0.023-0.367,0.034-0.551c0.035-0.589,0.078-1.176,0.134-1.759&#10;&#9;&#9;&#9;c0.015-0.156,0.032-0.311,0.048-0.466c0.072-0.674,0.156-1.344,0.256-2.009c0.006-0.042,0.012-0.085,0.019-0.127&#10;&#9;&#9;&#9;c1.183-7.67,4.237-14.729,8.678-20.699c0.064-0.086,0.13-0.172,0.195-0.258C386.65,347.231,400.211,339.897,415.456,339.897z&#10;&#9;&#9;&#9; M364.223,345.633H335.44v-41.509h18.243c11.195,0,20.303-9.108,20.303-20.303v-18.297h37.996L364.223,345.633z"/> 
</g> 
</g> 
 <g> <g> <path d="M61.776,361.423c-13.92,0-25.245,11.325-25.245,25.246c0,13.921,11.325,25.246,25.245,25.246&#10;&#9;&#9;&#9;c13.921,0,25.246-11.325,25.246-25.246C87.022,372.749,75.697,361.423,61.776,361.423z M61.776,396.91&#10;&#9;&#9;&#9;c-5.646,0-10.24-4.594-10.24-10.241c0-5.647,4.593-10.241,10.24-10.241c5.647,0,10.241,4.594,10.241,10.241&#10;&#9;&#9;&#9;C72.017,392.316,67.423,396.91,61.776,396.91z"/> 
</g> 
</g> 
 <g> <g> <path d="M415.456,361.424c-13.921,0-25.246,11.325-25.246,25.246c0,13.92,11.325,25.246,25.246,25.246&#10;&#9;&#9;&#9;c13.921,0,25.246-11.325,25.246-25.246C440.702,372.749,429.377,361.424,415.456,361.424z M415.456,396.911&#10;&#9;&#9;&#9;c-5.647,0-10.241-4.594-10.241-10.241c0-5.647,4.594-10.241,10.241-10.241c5.646,0,10.241,4.594,10.241,10.241&#10;&#9;&#9;&#9;C425.697,392.317,421.103,396.911,415.456,396.911z"/> 
</g> 
</g> 
 <g> <g> <path d="M230.132,230.868c-4.144,0-7.503,3.359-7.503,7.503v32.619c0,4.145,3.359,7.503,7.503,7.503s7.503-3.359,7.503-7.503&#10;&#9;&#9;&#9;v-32.619C237.635,234.227,234.276,230.868,230.132,230.868z"/> 
</g> 
</g> 
 <g> <g> <path d="M262.734,230.868c-4.144,0-7.503,3.359-7.503,7.503v32.619c0,4.145,3.359,7.503,7.503,7.503&#10;&#9;&#9;&#9;c4.144,0,7.503-3.359,7.503-7.503v-32.619C270.237,234.227,266.878,230.868,262.734,230.868z"/> 
</g> 
</g> 
 <g> <g> <path d="M295.335,230.868c-4.144,0-7.503,3.359-7.503,7.503v32.619c0,4.145,3.359,7.503,7.503,7.503s7.503-3.359,7.503-7.503&#10;&#9;&#9;&#9;v-32.619C302.838,234.227,299.479,230.868,295.335,230.868z"/> 
</g> 
</g> 
 <g> <g> <path d="M327.937,230.868c-4.144,0-7.503,3.359-7.503,7.503v32.619c0,4.145,3.359,7.503,7.503,7.503&#10;&#9;&#9;&#9;c4.144,0,7.503-3.359,7.503-7.503v-32.619C335.44,234.227,332.081,230.868,327.937,230.868z"/> 
</g> 
</g> 
 <g/> 
 <g/> 
 <g/> 
 <g/> 
 <g/> 
 <g/> 
 <g/> 
 <g/> 
 <g/> 
 <g/> 
 <g/> 
 <g/> 
 <g/> 
 <g/> 
 <g/> 
</svg>