<svg id="1298326626" enable-background="new 0 0 512 512" height="512" viewBox="0 0 512 512" width="512" xmlns="http://www.w3.org/2000/svg" data-icon-custom="true" data-icon-name="tarjeta-de-credito.svg"> <g> <g> <g> <path d="m402.77 355.329h-373.804c-11.855 0-21.466-9.61-21.466-21.466v-234.144c0-11.855 9.611-21.466 21.466-21.466h373.804c11.855 0 21.466 9.611 21.466 21.466v234.145c0 11.855-9.611 21.465-21.466 21.465z" fill="#7acaa6"/> 
 <path d="m412.77 78.253h-30c11.855 0 21.466 9.611 21.466 21.466v234.145c0 11.855-9.61 21.466-21.466 21.466h30c11.855 0 21.466-9.611 21.466-21.466v-234.145c0-11.855-9.611-21.466-21.466-21.466z" fill="#57be92"/> 
 <path d="m101.981 191.032h-51.55c-4.742 0-8.586-3.844-8.586-8.586v-51.55c0-4.742 3.844-8.586 8.586-8.586h51.55c4.742 0 8.586 3.844 8.586 8.586v51.55c0 4.742-3.844 8.586-8.586 8.586z" fill="#fee97d"/> 
 <path d="m473.034 433.747h-373.804c-11.855 0-21.466-9.61-21.466-21.466v-168.017l10-17.53-10-26.007v-22.591c0-11.855 9.611-21.466 21.466-21.466h373.805c11.855 0 21.466 9.61 21.466 21.466v234.145c-.001 11.856-9.612 21.466-21.467 21.466z" fill="#ecf4fe"/> 
 <path d="m483.034 156.671h-30c11.855 0 21.466 9.611 21.466 21.466v234.145c0 11.855-9.611 21.466-21.466 21.466h30c11.855 0 21.466-9.61 21.466-21.466v-168.018l-10-21.768 10-21.768v-22.591c0-11.855-9.611-21.466-21.466-21.466z" fill="#d9ebfe"/> 
 <path d="m474.5 244.264h-396.736v-43.536h396.736l10 21.768z" fill="#7a6d79"/> 
 <path d="m474.5 200.728h30v43.536h-30z" fill="#685e68"/> 
 <path d="m417.966 393.747h-51.55c-4.742 0-8.586-3.844-8.586-8.586v-31.55c0-4.742 3.844-8.586 8.586-8.586h51.55c4.742 0 8.586 3.844 8.586 8.586v31.55c.001 4.742-3.844 8.586-8.586 8.586z" fill="#7acaa6"/> 
 <path d="m465.914 393.747h-51.55c-4.742 0-8.586-3.844-8.586-8.586v-31.55c0-4.742 3.844-8.586 8.586-8.586h51.55c4.742 0 8.586 3.844 8.586 8.586v31.55c0 4.742-3.844 8.586-8.586 8.586z" fill="#7a6d79"/> 
</g> 
</g> 
 <g> <path d="m430.077 294.51h36.923c4.142 0 7.5-3.358 7.5-7.5s-3.358-7.5-7.5-7.5h-36.923c-4.142 0-7.5 3.358-7.5 7.5s3.358 7.5 7.5 7.5z"/> 
 <path d="m366.23 294.51h36.923c4.142 0 7.5-3.358 7.5-7.5s-3.358-7.5-7.5-7.5h-36.923c-4.142 0-7.5 3.358-7.5 7.5s3.358 7.5 7.5 7.5z"/> 
 <path d="m339.306 279.51h-36.923c-4.142 0-7.5 3.358-7.5 7.5s3.358 7.5 7.5 7.5h36.923c4.142 0 7.5-3.358 7.5-7.5s-3.358-7.5-7.5-7.5z"/> 
 <path d="m465.914 401.247c8.87 0 16.086-7.216 16.086-16.087v-31.55c0-8.87-7.216-16.086-16.086-16.086h-99.497c-8.87 0-16.086 7.216-16.086 16.086v31.55c0 8.87 7.216 16.087 16.086 16.087zm-100.584-16.086v-31.55c0-.599.487-1.086 1.086-1.086h31.916c-.024.361-.055.72-.055 1.086v31.55c0 .367.031.726.055 1.087h-31.916c-.599-.001-1.086-.488-1.086-1.087zm101.67 0c0 .599-.487 1.087-1.086 1.087h-51.55c-.599 0-1.086-.487-1.086-1.087v-31.55c0-.599.487-1.086 1.086-1.086h51.55c.599 0 1.086.487 1.086 1.086z"/> 
 <path d="m190.868 347.829h-68.535c-4.142 0-7.5 3.358-7.5 7.5s3.358 7.5 7.5 7.5h68.535c4.142 0 7.5-3.358 7.5-7.5s-3.358-7.5-7.5-7.5z"/> 
 <path d="m7.5 220.692c4.142 0 7.5-3.358 7.5-7.5v-113.473c0-7.701 6.265-13.966 13.966-13.966h182.572c4.142 0 7.5-3.358 7.5-7.5s-3.358-7.5-7.5-7.5h-182.572c-15.972 0-28.966 12.994-28.966 28.966v113.473c0 4.142 3.358 7.5 7.5 7.5z"/> 
 <path d="m483.034 149.171h-41.298v-49.452c0-15.972-12.994-28.966-28.966-28.966h-168.546c-4.142 0-7.5 3.358-7.5 7.5s3.358 7.5 7.5 7.5h168.546c7.701 0 13.966 6.265 13.966 13.966v49.452h-52.562c-4.142 0-7.5 3.358-7.5 7.5s3.358 7.5 7.5 7.5h108.861c7.701 0 13.966 6.265 13.966 13.966v15.091h-411.737v-15.091c0-7.701 6.265-13.966 13.966-13.966h242.257c4.142 0 7.5-3.358 7.5-7.5s-3.358-7.5-7.5-7.5h-223.42v-18.275c0-8.87-7.216-16.086-16.086-16.086h-51.55c-8.87 0-16.086 7.216-16.086 16.086v51.55c0 8.87 7.216 16.086 16.086 16.086h19.833v57.928h-28.419c-4.142 0-7.5 3.358-7.5 7.5s3.358 7.5 7.5 7.5h28.419v26.249h-28.419c-4.142 0-7.5 3.358-7.5 7.5s3.358 7.5 7.5 7.5h28.419v35.12h-41.298c-7.701 0-13.966-6.265-13.966-13.966v-87.985c0-4.142-3.358-7.5-7.5-7.5s-7.5 3.358-7.5 7.5v87.985c0 15.972 12.994 28.966 28.966 28.966h41.298v49.452c0 15.972 12.994 28.966 28.966 28.966h383.804c15.972 0 28.966-12.994 28.966-28.966v-234.144c0-15.972-12.994-28.966-28.966-28.966zm13.966 59.057v28.537h-411.736v-28.537zm-446.569-24.696c-.599 0-1.086-.487-1.086-1.086v-51.55c0-.599.487-1.086 1.086-1.086h51.55c.599 0 1.086.487 1.086 1.086v18.275h-3.837c-15.972 0-28.966 12.994-28.966 28.966v5.395zm432.603 242.715h-383.804c-7.701 0-13.966-6.265-13.966-13.966v-160.516h411.736v160.517c0 7.7-6.265 13.965-13.966 13.965z"/> 
</g> 
</g> 
</svg>